<mxfile host="app.diagrams.net" modified="2024-03-06T16:28:35.855Z" agent="Mozilla/5.0 (Macintosh; Intel Mac OS X 10_15_7) AppleWebKit/537.36 (KHTML, like Gecko) Chrome/122.0.0.0 Safari/537.36" etag="v4GBAzOdPIKc56OETun_" version="24.0.1" type="github">
  <diagram name="Page-1" id="7Dp5hzcjqhIuDeoEY9g4">
    <mxGraphModel dx="2641" dy="1003" grid="1" gridSize="10" guides="1" tooltips="1" connect="1" arrows="1" fold="1" page="1" pageScale="1" pageWidth="850" pageHeight="1100" math="0" shadow="0">
      <root>
        <mxCell id="0" />
        <mxCell id="1" parent="0" />
        <mxCell id="0ey4tVrZVSthfN_zSkhI-1" value="&lt;a href=&quot;https://git.zias.io/homer/jenkins-pipelines/blob/main/ci/Jenkins-maven-docker-ecr-A&quot;&gt;V1(CI)&lt;/a&gt;" style="ellipse;whiteSpace=wrap;html=1;aspect=fixed;" vertex="1" parent="1">
          <mxGeometry x="140" y="390" width="120" height="120" as="geometry" />
        </mxCell>
        <mxCell id="0ey4tVrZVSthfN_zSkhI-2" value="&lt;a href=&quot;https://git.zias.io/homer/jenkins-pipelines/blob/main/cd/Jenkins-wagon-D&quot;&gt;V1(CD)&lt;/a&gt;" style="ellipse;whiteSpace=wrap;html=1;aspect=fixed;" vertex="1" parent="1">
          <mxGeometry x="140" y="680" width="120" height="120" as="geometry" />
        </mxCell>
        <mxCell id="0ey4tVrZVSthfN_zSkhI-3" value="&lt;a href=&quot;https://git.zias.io/search?q=standardPipeline&amp;amp;type=code&quot;&gt;V2 (CI/CD)&lt;/a&gt;" style="ellipse;whiteSpace=wrap;html=1;aspect=fixed;" vertex="1" parent="1">
          <mxGeometry x="660" y="540" width="120" height="120" as="geometry" />
        </mxCell>
        <mxCell id="0ey4tVrZVSthfN_zSkhI-4" value="" style="shape=image;html=1;verticalAlign=top;verticalLabelPosition=bottom;labelBackgroundColor=#ffffff;imageAspect=0;aspect=fixed;image=https://cdn4.iconfinder.com/data/icons/ionicons/512/icon-plus-round-128.png" vertex="1" parent="1">
          <mxGeometry x="340" y="536" width="128" height="128" as="geometry" />
        </mxCell>
        <mxCell id="0ey4tVrZVSthfN_zSkhI-5" value="" style="shape=image;html=1;verticalAlign=top;verticalLabelPosition=bottom;labelBackgroundColor=#ffffff;imageAspect=0;aspect=fixed;image=https://cdn2.iconfinder.com/data/icons/css-vol-2/24/math-equal-128.png" vertex="1" parent="1">
          <mxGeometry x="460" y="536" width="128" height="128" as="geometry" />
        </mxCell>
      </root>
    </mxGraphModel>
  </diagram>
</mxfile>
